<?xml version="1.0" encoding="utf-8"?>
<!-- Generator: Adobe Illustrator 26.3.1, SVG Export Plug-In . SVG Version: 6.00 Build 0)  -->
<svg version="1.1" id="Layer_1" xmlns="http://www.w3.org/2000/svg" xmlns:xlink="http://www.w3.org/1999/xlink" x="0px" y="0px"
	 viewBox="0 0 2880 1600" style="enable-background:new 0 0 2880 1600;" xml:space="preserve">
<style type="text/css">
	.st0{fill:#293C2B;}
	.st1{font-family:'Univers';}
	.st2{font-size:183.205px;}
</style>
<g>
	<path class="st0" d="M1100.8,437.2l59.8,227.8l65.9-227.8h47.5l62.5,229.7l62.9-229.7h37.6L1355,714.1h-42.6l-64-236.6l-68.6,236.6
		h-41.4l-78.6-276.8H1100.8z"/>
	<path class="st0" d="M1501.5,633.2c0.8,19.2,3.1,54.8,66.7,54.8c57.5,0,64.8-35.7,64.8-49.5c0-31.1-24.9-37.2-63.6-46.8
		c-42.2-10.4-61-15-75.2-24.5c-22.6-15.3-28.8-36-28.8-54.4c0-56.4,53.3-80.9,105.4-80.9c18.4,0,55.6,3.1,77.8,27.2
		c15.3,16.9,16.1,35.7,16.9,47.2h-39.9c-1.9-34.5-31.1-42.2-58.3-42.2c-38.3,0-61.3,17.3-61.3,44.9c0,24.5,16.1,33,49.8,41
		c65.9,16.9,73.2,18.4,89.3,29.1c25.7,16.9,27.6,43.7,27.6,55.2c0,49.1-38.3,86.3-109.3,86.3c-21.1,0-64-3.5-85.9-31.4
		c-15.7-20.3-16.1-42.6-16.1-56H1501.5z"/>
	<path class="st0" d="M1729.6,437.2h92.8c33.7,0,56.7,1.9,75.5,22.2c13.8,14.2,20.3,33,20.3,53.7c0,21.1-6.9,39.1-21.9,54.1
		c-14.6,14.6-33.7,23.8-83.6,23.8H1768v123.1h-38.3V437.2z M1768,558.8h45.6c25.3,0,64-1.9,64-47.2c0-43.3-36-43.3-56-43.3H1768
		V558.8z"/>
</g>
<text transform="matrix(1 0 0 1 586.9475 981.8763)" class="st0 st1 st2">Water Street Projects</text>
</svg>
